<svg width="50" height="50" viewBox="0 0 50 50" fill="none" xmlns="http://www.w3.org/2000/svg">
<g clip-path="url(#clip0_471_26928)">
<path d="M44.1246 17.0348C43.834 15.9401 42.8424 15.1777 41.7093 15.1777H8.2926C7.15941 15.1777 6.16786 15.9401 5.87727 17.0348L0.83728 35.9939V45.0094C0.83728 46.3895 1.95693 47.5091 3.33697 47.5091H46.6649C48.0449 47.5091 49.1646 46.3895 49.1646 45.0094V35.9939L44.1246 17.0348Z" fill="#FFD1D2"/>
<path d="M44.185 17.2608H12.4587C11.3256 17.2608 10.334 18.0232 10.0434 19.1179L5.55752 35.9939H0.83728L5.87728 17.0348C6.16786 15.9401 7.15941 15.1777 8.2926 15.1777H41.7093C42.8424 15.1777 43.834 15.9401 44.1246 17.0348L44.185 17.2608Z" fill="#FFE8E8"/>
<path d="M49.1646 35.9922V45.0077C49.1646 46.3878 48.0449 47.5074 46.6649 47.5074H3.33697C1.95693 47.5074 0.83728 46.3878 0.83728 45.0077V35.9922H49.1646Z" fill="#FFA2A4"/>
<path d="M5.63054 40.8986C5.63251 47.4828 5.60773 47.1916 5.66376 47.5077H3.33697C1.95641 47.5077 0.83728 46.3886 0.83728 45.008V35.9925H41.802C43.1875 35.9925 43.1888 38.0756 41.802 38.0756H8.45206C6.8934 38.0756 5.63012 39.3399 5.63054 40.8986ZM22.6012 23.9648L24.5843 32.0659H7.26564L9.24873 23.9648H22.6012Z" fill="#FFB9BA"/>
<path d="M21.1066 3.63788L24.1708 2.59634C22.9522 8.00087 22.695 14.0959 23.3522 19.7452H11.3506C10.6934 14.0959 10.9506 8.00087 12.1692 2.59634L15.0595 3.63788L18.0424 2.49219L21.1066 3.63788Z" fill="#FFD1D2"/>
<path d="M11.062 16.2082C10.8392 11.6889 11.1934 6.92611 12.1692 2.59634L15.0595 3.63788L18.0424 2.49219L21.1066 3.63788L21.768 3.41291C23.2168 10.1204 18.7246 16.7498 11.062 16.2082Z" fill="#FFE8E8"/>
<path d="M44.2631 3.05469H31.4293C26.7768 3.05469 26.7799 10.0434 31.4293 10.0434H33.8675V18.7517C33.8675 19.6724 34.6133 20.4181 35.534 20.4181H37.415C38.3357 20.4181 39.0815 19.6724 39.0815 18.7517V10.0434H44.2631C48.9157 10.0434 48.9125 3.05469 44.2631 3.05469Z" fill="#FFD1D2"/>
<path d="M47.2252 4.61699H34.5539C31.3241 4.61699 30.3378 7.98428 31.5918 10.0434H31.4293C26.7799 10.0434 26.7768 3.05469 31.4293 3.05469H44.2631C45.6848 3.05469 46.6722 3.70877 47.2252 4.61699Z" fill="#FFE8E8"/>
<path d="M39.0815 10.043V18.7513C39.0815 19.672 38.3357 20.4177 37.415 20.4177H35.534C34.6133 20.4177 33.8675 19.672 33.8675 18.7513V10.043H39.0815Z" fill="#FFB9BA"/>
<path d="M26.9261 16.0094H33.0342V18.7508C33.0342 20.1292 34.1556 21.2505 35.5339 21.2505H36.18C36.4009 21.2505 36.6129 21.1627 36.7691 21.0065C36.9254 20.8502 37.0132 20.6383 37.0132 20.4173C37.0132 20.1963 36.9254 19.9844 36.7691 19.8281C36.6129 19.6718 36.4009 19.5841 36.18 19.5841H35.5339C35.0745 19.5841 34.7007 19.2102 34.7007 18.7508V10.8755H38.2486V18.4923C38.2486 18.7133 38.3363 18.9252 38.4926 19.0815C38.6489 19.2378 38.8608 19.3255 39.0818 19.3255C39.3028 19.3255 39.5147 19.2378 39.671 19.0815C39.8272 18.9252 39.915 18.7133 39.915 18.4923V10.0423C39.915 9.82134 39.8272 9.60941 39.671 9.45315C39.5147 9.29689 39.3028 9.2091 39.0818 9.2091H31.4289C27.8871 9.2091 27.8688 3.88716 31.4289 3.88716H44.2633C47.8051 3.88716 47.8234 9.2091 44.2633 9.2091H42.9119C42.6909 9.2091 42.479 9.29689 42.3227 9.45315C42.1665 9.60941 42.0787 9.82134 42.0787 10.0423C42.0787 10.2633 42.1665 10.4753 42.3227 10.6315C42.479 10.7878 42.6909 10.8756 42.9119 10.8756H44.2633C50.011 10.8756 50.0144 2.2207 44.2633 2.2207H31.429C25.6573 2.2207 25.6926 10.8756 31.429 10.8756H33.0342V14.343H26.9261C26.7068 14.3455 26.4972 14.4344 26.343 14.5903C26.1887 14.7463 26.1022 14.9568 26.1022 15.1762C26.1022 15.3956 26.1887 15.6061 26.343 15.7621C26.4972 15.9181 26.7068 16.0069 26.9261 16.0094Z" fill="#FF2E31"/>
<path d="M49.9969 35.9735C49.993 35.8188 50.3345 37.1429 44.9301 16.8201C44.7213 16.034 44.2321 15.3516 43.5549 14.9013C43.4638 14.8407 43.3616 14.7986 43.2543 14.7774C43.1469 14.7563 43.0364 14.7565 42.9291 14.7781C42.8219 14.7996 42.7199 14.8421 42.629 14.9031C42.5382 14.9641 42.4602 15.0423 42.3996 15.1334C42.339 15.2245 42.2969 15.3267 42.2758 15.434C42.2546 15.5414 42.2548 15.6519 42.2764 15.7591C42.298 15.8664 42.3404 15.9684 42.4014 16.0593C42.4624 16.1501 42.5406 16.2281 42.6317 16.2887C42.9705 16.5138 43.2152 16.8551 43.3196 17.2483L48.081 35.1596H5.65856C5.43757 35.1596 5.22564 35.2474 5.06938 35.4036C4.91312 35.5599 4.82533 35.7718 4.82533 35.9928C4.82533 36.2138 4.91312 36.4257 5.06938 36.582C5.22564 36.7382 5.43757 36.826 5.65856 36.826H48.3313V45.0085C48.3313 45.9275 47.5837 46.675 46.6649 46.675H3.33698C2.41813 46.675 1.67052 45.9275 1.67052 45.0085V36.1016L6.68229 17.2484C6.77699 16.8934 6.98617 16.5797 7.27739 16.3558C7.5686 16.1319 7.92557 16.0103 8.29292 16.01H10.2199C10.2279 16.1924 10.235 16.3746 10.2448 16.5569C10.2505 16.6662 10.2778 16.7733 10.325 16.8721C10.3722 16.9708 10.4384 17.0593 10.5199 17.1324C10.6013 17.2055 10.6964 17.2619 10.7997 17.2982C10.9029 17.3345 11.0123 17.3501 11.1216 17.3441C11.3423 17.3322 11.5492 17.2331 11.6968 17.0687C11.8444 16.9042 11.9207 16.6879 11.9088 16.4672C11.6732 12.0932 11.976 7.70258 12.7846 3.70485L14.7768 4.42289C14.965 4.49072 15.1713 4.48858 15.3581 4.41685L18.0467 3.38437L20.8151 4.41945C20.9952 4.48675 21.193 4.48973 21.375 4.42789L23.0585 3.85567C22.1519 8.60632 21.93 13.8661 22.4257 18.9126H10.2144C9.99346 18.9126 9.78153 19.0004 9.62527 19.1567C9.46901 19.3129 9.38122 19.5249 9.38122 19.7459C9.38122 19.9669 9.46901 20.1788 9.62527 20.3351C9.78153 20.4913 9.99346 20.5791 10.2144 20.5791H24.6482C24.8692 20.5791 25.0811 20.4913 25.2373 20.3351C25.3936 20.1788 25.4814 19.9669 25.4814 19.7459C25.4814 19.5249 25.3936 19.3129 25.2373 19.1567C25.0811 19.0004 24.8692 18.9126 24.6482 18.9126H24.1022C23.55 13.474 23.8576 7.77518 24.9837 2.7808C25.1264 2.14786 24.5198 1.59887 23.9028 1.80863L21.1202 2.75445L18.3345 1.71291C18.1439 1.64168 17.9339 1.64261 17.7439 1.71552L15.05 2.75008L12.4519 1.81374C11.9808 1.64397 11.4666 1.9256 11.3565 2.41429C10.5172 6.13622 10.1151 10.2204 10.1717 14.3435H8.29282C6.78405 14.3435 5.45942 15.3619 5.07165 16.8202C-0.330378 37.1397 0.00405973 35.8235 0.00405973 35.9927V45.0084C0.00405973 46.8462 1.49919 48.3414 3.33698 48.3414H46.6649C48.5027 48.3414 49.9978 46.8462 49.9978 45.0084C49.9978 44.7698 49.9983 36.037 49.9969 35.9735Z" fill="#FF2E31"/>
<path d="M22.6013 23.1328H9.24904C9.0625 23.1328 8.88136 23.1954 8.73461 23.3105C8.58787 23.4257 8.48401 23.5868 8.43966 23.7679L6.45668 31.8684C6.32815 32.3933 6.72633 32.8997 7.26605 32.8997H24.5843C25.1247 32.8997 25.522 32.3927 25.3937 31.8684L23.4107 23.7679C23.3663 23.5868 23.2624 23.4257 23.1157 23.3106C22.969 23.1954 22.7878 23.1328 22.6013 23.1328ZM8.3278 31.2333L9.90281 24.7993H21.9476L23.5226 31.2333H8.3278ZM35.0447 42.9825C36.4746 42.9825 37.6378 41.8192 37.6378 40.3893C37.6378 40.1683 37.55 39.9564 37.3937 39.8001C37.2375 39.6439 37.0255 39.5561 36.8046 39.5561C36.5836 39.5561 36.3716 39.6439 36.2154 39.8001C36.0591 39.9564 35.9713 40.1683 35.9713 40.3893C35.9713 40.9003 35.5556 41.3161 35.0447 41.3161H14.9572C14.4462 41.3161 14.0305 40.9003 14.0305 40.3893C14.0305 40.1683 13.9427 39.9564 13.7865 39.8001C13.6302 39.6439 13.4183 39.5561 13.1973 39.5561C12.9763 39.5561 12.7644 39.6439 12.6081 39.8001C12.4518 39.9564 12.3641 40.1683 12.3641 40.3893C12.3641 41.8192 13.5274 42.9825 14.9572 42.9825H35.0447ZM36.0415 23.966C36.0415 23.7451 35.9537 23.5331 35.7975 23.3769C35.6412 23.2206 35.4293 23.1328 35.2083 23.1328H33.5156C33.2946 23.1328 33.0827 23.2206 32.9264 23.3769C32.7701 23.5331 32.6824 23.7451 32.6824 23.966C32.6824 24.187 32.7701 24.399 32.9264 24.5552C33.0827 24.7115 33.2946 24.7993 33.5156 24.7993H35.2083C35.4293 24.7993 35.6412 24.7115 35.7975 24.5552C35.9537 24.399 36.0415 24.187 36.0415 23.966ZM30.2112 23.966C30.2112 23.7451 30.1234 23.5331 29.9672 23.3769C29.8109 23.2206 29.599 23.1328 29.378 23.1328H27.6854C27.4644 23.1328 27.2525 23.2206 27.0962 23.3769C26.9399 23.5331 26.8521 23.7451 26.8521 23.966C26.8521 24.187 26.9399 24.399 27.0962 24.5552C27.2525 24.7115 27.4644 24.7993 27.6854 24.7993H29.378C29.599 24.7993 29.8109 24.7115 29.9672 24.5552C30.1234 24.399 30.2112 24.187 30.2112 23.966ZM41.8717 23.966C41.8717 23.7451 41.7839 23.5331 41.6277 23.3769C41.4714 23.2206 41.2595 23.1328 41.0385 23.1328H39.3458C39.1248 23.1328 38.9129 23.2206 38.7566 23.3769C38.6004 23.5331 38.5126 23.7451 38.5126 23.966C38.5126 24.187 38.6004 24.399 38.7566 24.5552C38.9129 24.7115 39.1248 24.7993 39.3458 24.7993H41.0385C41.2595 24.7993 41.4714 24.7115 41.6277 24.5552C41.7839 24.399 41.8717 24.187 41.8717 23.966ZM34.4873 29.9702H36.1799C36.4009 29.9702 36.6129 29.8824 36.7691 29.7261C36.9254 29.5699 37.0132 29.3579 37.0132 29.137C37.0132 28.916 36.9254 28.704 36.7691 28.5478C36.6129 28.3915 36.4009 28.3037 36.1799 28.3037H34.4873C34.2664 28.3037 34.0544 28.3915 33.8982 28.5478C33.7419 28.704 33.6541 28.916 33.6541 29.137C33.6541 29.3579 33.7419 29.5699 33.8982 29.7261C34.0544 29.8824 34.2664 29.9702 34.4873 29.9702ZM28.657 29.9702H30.3497C30.5707 29.9702 30.7827 29.8824 30.9389 29.7261C31.0952 29.5699 31.183 29.3579 31.183 29.137C31.183 28.916 31.0952 28.704 30.9389 28.5478C30.7827 28.3915 30.5707 28.3037 30.3497 28.3037H28.657C28.436 28.3037 28.2241 28.3915 28.0678 28.5478C27.9116 28.704 27.8238 28.916 27.8238 29.137C27.8238 29.3579 27.9116 29.5699 28.0678 29.7261C28.2241 29.8824 28.436 29.9702 28.657 29.9702ZM40.3177 29.9702H42.0103C42.2312 29.9702 42.4432 29.8824 42.5994 29.7261C42.7557 29.5699 42.8435 29.3579 42.8435 29.137C42.8435 28.916 42.7557 28.704 42.5994 28.5478C42.4432 28.3915 42.2312 28.3037 42.0103 28.3037H40.3177C40.0967 28.3037 39.8847 28.3915 39.7285 28.5478C39.5722 28.704 39.4844 28.916 39.4844 29.137C39.4844 29.3579 39.5722 29.5699 39.7285 29.7261C39.8847 29.8824 40.0967 29.9702 40.3177 29.9702Z" fill="#FF2E31"/>
</g>
<defs>
<clipPath id="clip0_471_26928">
<rect width="50" height="50" fill="white"/>
</clipPath>
</defs>
</svg>
