<svg width="50" height="50" viewBox="0 0 50 50" fill="none" xmlns="http://www.w3.org/2000/svg">
<g clip-path="url(#clip0_471_26933)">
<path d="M46.6667 27.3451H39.7564C39.8081 27.0366 39.7917 28.4195 39.7917 6.51172C39.7917 5.13151 38.6719 4.01172 37.2917 4.01172H16.875C15.4948 4.01172 14.375 5.13151 14.375 6.51172V16.3034H3.33334C1.95314 16.3034 0.833344 17.4232 0.833344 18.8034V43.4909C0.833344 44.8711 1.95314 45.9909 3.33334 45.9909H28.0208C29.4011 45.9909 30.5208 44.8711 30.5208 43.4909C30.5208 44.8711 31.6406 45.9909 33.0208 45.9909H46.6667C48.0469 45.9909 49.1667 44.8711 49.1667 43.4909V29.8451C49.1667 28.4648 48.0469 27.3451 46.6667 27.3451Z" fill="#FFB9BA"/>
<path d="M23.75 4.01172V6.30339C23.75 6.7638 23.3771 7.13672 22.9167 7.13672H21.0417C19.6615 7.13672 18.5417 8.25651 18.5417 9.63672V16.3034H14.375V6.51172C14.375 5.13151 15.4948 4.01172 16.875 4.01172H23.75ZM28.0754 19.0117H21.5625C21.3415 19.0117 21.1295 18.9239 20.9733 18.7676C20.817 18.6114 20.7292 18.3994 20.7292 18.1784V16.3034H28.0208C29.9556 16.3034 29.8314 19.0117 28.0754 19.0117ZM10.675 16.3034V18.1784C10.675 18.3994 10.5872 18.6114 10.4309 18.7676C10.2747 18.9239 10.0627 19.0117 9.84168 19.0117H7.08334C5.70261 19.0117 4.58334 20.131 4.58334 21.5117V45.1576C4.58334 45.3786 4.49555 45.5905 4.33927 45.7468C4.18299 45.9031 3.97102 45.9909 3.75001 45.9909H3.33334C1.95261 45.9909 0.833344 44.8716 0.833344 43.4909V18.8034C0.833344 17.4227 1.95261 16.3034 3.33334 16.3034H10.675ZM47.7673 29.4284H43.9583C43.7373 29.4284 43.5254 29.3406 43.3691 29.1843C43.2128 29.028 43.125 28.8161 43.125 28.5951V27.3451H46.6667C47.2777 27.3443 47.8677 27.5683 48.3244 27.9743C48.8962 28.4815 48.5316 29.4284 47.7673 29.4284ZM36.4583 27.3451V28.6362C36.4583 29.0327 36.1364 29.3972 35.745 29.4605C34.5575 29.6522 33.6448 30.6818 33.6448 31.9292V43.5018C33.6454 45.5309 30.5208 45.6487 30.5208 43.4909V29.8451C30.5208 28.4643 31.6401 27.3451 33.0208 27.3451H36.4583ZM37.302 7.13672H31.25C31.029 7.13672 30.817 7.04892 30.6608 6.89264C30.5045 6.73636 30.4167 6.5244 30.4167 6.30339V4.01172H37.2917C39.4464 4.01172 39.3348 7.13672 37.302 7.13672Z" fill="#FFD1D2"/>
<path d="M39.7917 26.5117C39.7917 26.9379 39.8 27.0984 39.7564 27.3451H33.0208C31.7962 27.3451 30.7559 28.2345 30.5562 29.4284C30.5011 29.4284 30.5208 30.2521 30.5208 18.8034C30.5208 17.4232 29.401 16.3034 28.0208 16.3034H14.375V15.4701C14.375 15.0096 14.7479 14.6367 15.2083 14.6367H28.0208C30.3219 14.6367 32.1875 16.5023 32.1875 18.8034V25.7617C32.7523 25.648 32.5525 25.6784 38.9583 25.6784C39.4187 25.6784 39.7917 26.0513 39.7917 26.5117Z" fill="#FFA2A4"/>
<path d="M30.4167 4.01172V9.85651C30.4167 11.0961 29.1125 11.9013 28.0042 11.3471L27.0833 10.8867L26.1625 11.3471C25.0542 11.9013 23.75 11.0961 23.75 9.85651V4.01172H30.4167Z" fill="#FFD1D2"/>
<path d="M30.4167 4.01172V6.30339C30.4167 6.5244 30.3289 6.73636 30.1726 6.89264C30.0163 7.04892 29.8043 7.13672 29.5833 7.13672H24.5833C24.3623 7.13672 24.1504 7.04892 23.9941 6.89264C23.8378 6.73636 23.75 6.5244 23.75 6.30339V4.01172H30.4167Z" fill="#FFE8E8"/>
<path d="M43.125 27.3438V32.1469C43.125 33.3865 41.8208 34.1917 40.7125 33.6375L39.7917 33.1771L38.8708 33.6375C37.7625 34.1917 36.4583 33.3865 36.4583 32.1469V27.3438H43.125Z" fill="#FFD1D2"/>
<path d="M43.125 27.3438V28.5938C43.125 28.8148 43.0372 29.0267 42.8809 29.183C42.7247 29.3393 42.5127 29.4271 42.2917 29.4271H37.2917C37.0707 29.4271 36.8587 29.3393 36.7024 29.183C36.5461 29.0267 36.4583 28.8148 36.4583 28.5938V27.3438H43.125Z" fill="#FFE8E8"/>
<path d="M20.7292 16.3027V24.1236C20.7292 25.1371 19.5875 25.7288 18.7594 25.1454L18.2427 24.7819L16.6489 25.8809C16.3704 26.0727 16.0402 26.1754 15.7021 26.1754C15.3639 26.1754 15.0337 26.0727 14.7552 25.8809L13.1614 24.7819L12.6448 25.1454C11.8167 25.7288 10.675 25.1371 10.675 24.1236V16.3027H20.7292Z" fill="#FFD1D2"/>
<path d="M20.7292 16.3027V18.1777C20.7292 18.3987 20.6414 18.6107 20.4851 18.767C20.3288 18.9233 20.1168 19.0111 19.8958 19.0111H11.5083C11.2873 19.0111 11.0753 18.9233 10.9191 18.767C10.7628 18.6107 10.675 18.3987 10.675 18.1777V16.3027H20.7292Z" fill="#FFE8E8"/>
<path d="M46.6667 26.5111H40.625V6.51107C40.625 4.67305 39.1297 3.17773 37.2917 3.17773H16.875C15.037 3.17773 13.5417 4.67305 13.5417 6.51107V12.3779C13.5417 12.599 13.6295 12.8109 13.7857 12.9672C13.942 13.1235 14.154 13.2113 14.375 13.2113C14.596 13.2113 14.808 13.1235 14.9643 12.9672C15.1205 12.8109 15.2083 12.599 15.2083 12.3779V6.51107C15.2083 5.59211 15.956 4.8444 16.875 4.8444H22.9167V9.85596C22.9167 11.2839 24.0848 12.3582 25.4151 12.3582C26.0986 12.3582 26.4906 12.1139 27.0833 11.8177L27.632 12.092C29.2961 12.9242 31.25 11.7124 31.25 9.85596V8.27857C31.25 8.05755 31.1622 7.84559 31.0059 7.68931C30.8496 7.53303 30.6377 7.44523 30.4167 7.44523C30.1957 7.44523 29.9837 7.53303 29.8274 7.68931C29.6711 7.84559 29.5833 8.05755 29.5833 8.27857V9.85607C29.5833 10.4735 28.9339 10.8792 28.3773 10.6014L27.4559 10.1408C27.3403 10.0829 27.2127 10.0527 27.0833 10.0527C26.954 10.0527 26.8264 10.0829 26.7107 10.1408L25.7893 10.6014C25.2362 10.8779 24.5833 10.4766 24.5833 9.85607V4.8444H37.2917C38.2106 4.8444 38.9583 5.59211 38.9583 6.51107V26.5111H33.0208C31.1828 26.5111 29.6875 28.0064 29.6875 29.8444V43.4902C29.6875 44.4092 28.9398 45.1569 28.0208 45.1569H3.33333C2.41438 45.1569 1.66667 44.4092 1.66667 43.4902V18.8027C1.66667 17.8838 2.41438 17.1361 3.33333 17.1361H19.8958V24.1239C19.8958 24.462 19.5157 24.6593 19.2392 24.4645L18.7225 24.1003C18.5831 24.0022 18.417 23.9491 18.2466 23.9483C18.0761 23.9474 17.9095 23.9988 17.7692 24.0955L16.1753 25.1951C16.036 25.2906 15.871 25.3417 15.7021 25.3417C15.5332 25.3417 15.3683 25.2906 15.229 25.1951L13.6351 24.0955C13.4948 23.9987 13.3282 23.9472 13.1577 23.9481C12.9872 23.949 12.8211 24.0021 12.6818 24.1003L12.1652 24.4645C11.8888 24.6592 11.5085 24.4622 11.5085 24.1239V20.3888C11.5085 20.1678 11.4207 19.9558 11.2645 19.7995C11.1082 19.6432 10.8962 19.5554 10.6752 19.5554C10.4542 19.5554 10.2422 19.6432 10.086 19.7995C9.92967 19.9558 9.84188 20.1678 9.84188 20.3888V24.1239C9.84188 25.7582 11.6864 26.8411 13.1671 25.7973L14.2825 26.5669C15.1314 27.1526 16.2725 27.1528 17.1218 26.5669L18.2372 25.7973C19.7097 26.834 21.5625 25.7692 21.5625 24.1239V17.1361H28.0208C28.9398 17.1361 29.6875 17.8838 29.6875 18.8027V23.5238C29.6875 23.7448 29.7753 23.9568 29.9316 24.113C30.0879 24.2693 30.2998 24.3571 30.5208 24.3571C30.7418 24.3571 30.9538 24.2693 31.1101 24.113C31.2664 23.9568 31.3542 23.7448 31.3542 23.5238V18.8027C31.3542 16.9647 29.8589 15.4694 28.0208 15.4694H3.33333C1.49531 15.4694 0 16.9647 0 18.8027V43.4902C0 45.3283 1.49531 46.8236 3.33333 46.8236H28.0208C29.8589 46.8236 31.3542 45.3283 31.3542 43.4902V29.8444C31.3542 28.9254 32.1019 28.1777 33.0208 28.1777H42.2917V32.1476C42.2917 32.7663 41.6413 33.1702 41.0856 32.8929L40.1643 32.4323C40.0486 32.3744 39.921 32.3443 39.7917 32.3443C39.6623 32.3443 39.5347 32.3744 39.4191 32.4323L38.4976 32.8929C37.9435 33.1701 37.2917 32.7671 37.2917 32.1476V30.5804C37.2917 30.3594 37.2039 30.1475 37.0476 29.9912C36.8913 29.8349 36.6793 29.7471 36.4583 29.7471C36.2373 29.7471 36.0254 29.8349 35.8691 29.9912C35.7128 30.1475 35.625 30.3594 35.625 30.5804V32.1476C35.625 33.5755 36.7933 34.6498 38.1233 34.6498C38.8077 34.6498 39.2004 34.4048 39.7917 34.1094L40.3403 34.3837C42.0045 35.2159 43.9583 34.0041 43.9583 32.1476V28.1777H46.6667C47.5856 28.1777 48.3333 28.9254 48.3333 29.8444V43.4902C48.3333 44.4092 47.5856 45.1569 46.6667 45.1569H35.6956C35.4746 45.1569 35.2626 45.2447 35.1064 45.401C34.9501 45.5573 34.8623 45.7692 34.8623 45.9902C34.8623 46.2112 34.9501 46.4232 35.1064 46.5795C35.2626 46.7358 35.4746 46.8236 35.6956 46.8236H46.6667C48.5047 46.8236 50 45.3283 50 43.4902V29.8444C50 28.0064 48.5047 26.5111 46.6667 26.5111Z" fill="#FF2E31"/>
<path d="M5.52084 36.7201V41.9284C5.52084 42.1494 5.60864 42.3614 5.76492 42.5176C5.9212 42.6739 6.13316 42.7617 6.35418 42.7617C6.57519 42.7617 6.78715 42.6739 6.94343 42.5176C7.09971 42.3614 7.18751 42.1494 7.18751 41.9284V36.7201C7.18751 36.499 7.09971 36.2871 6.94343 36.1308C6.78715 35.9745 6.57519 35.8867 6.35418 35.8867C6.13316 35.8867 5.9212 35.9745 5.76492 36.1308C5.60864 36.2871 5.52084 36.499 5.52084 36.7201ZM10.1042 38.6992V41.9284C10.1042 42.1494 10.192 42.3614 10.3483 42.5176C10.5045 42.6739 10.7165 42.7617 10.9375 42.7617C11.1585 42.7617 11.3705 42.6739 11.5268 42.5176C11.683 42.3614 11.7708 42.1494 11.7708 41.9284V38.6992C11.7708 38.4782 11.683 38.2662 11.5268 38.11C11.3705 37.9537 11.1585 37.8659 10.9375 37.8659C10.7165 37.8659 10.5045 37.9537 10.3483 38.11C10.192 38.2662 10.1042 38.4782 10.1042 38.6992ZM37.0833 42.1367V40.4701C37.0833 40.249 36.9955 40.0371 36.8393 39.8808C36.683 39.7245 36.471 39.6367 36.25 39.6367H34.5833C34.3623 39.6367 34.1504 39.7245 33.9941 39.8808C33.8378 40.0371 33.75 40.249 33.75 40.4701V42.1367C33.75 42.3577 33.8378 42.5697 33.9941 42.726C34.1504 42.8823 34.3623 42.9701 34.5833 42.9701H36.25C36.471 42.9701 36.683 42.8823 36.8393 42.726C36.9955 42.5697 37.0833 42.3577 37.0833 42.1367Z" fill="#FF2E31"/>
</g>
<defs>
<clipPath id="clip0_471_26933">
<rect width="50" height="50" fill="white"/>
</clipPath>
</defs>
</svg>
