<svg width="80" height="81" viewBox="0 0 80 81" fill="none" xmlns="http://www.w3.org/2000/svg">
<circle cx="40" cy="40.5" r="40" fill="#CCF3FF"/>
<path d="M49 40.5V35.5H33C32.4696 35.5 31.9609 35.2893 31.5858 34.9142C31.2107 34.5391 31 34.0304 31 33.5C31 32.9696 31.2107 32.4609 31.5858 32.0858C31.9609 31.7107 32.4696 31.5 33 31.5H47V35.5" stroke="#0F5FC2" stroke-width="2" stroke-linecap="round" stroke-linejoin="round"/>
<path d="M31 33.5V47.5C31 48.0304 31.2107 48.5391 31.5858 48.9142C31.9609 49.2893 32.4696 49.5 33 49.5H49V44.5" stroke="#0F5FC2" stroke-width="2" stroke-linecap="round" stroke-linejoin="round"/>
<path d="M46 40.5C45.4696 40.5 44.9609 40.7107 44.5858 41.0858C44.2107 41.4609 44 41.9696 44 42.5C44 43.0304 44.2107 43.5391 44.5858 43.9142C44.9609 44.2893 45.4696 44.5 46 44.5H50V40.5H46Z" stroke="#0F5FC2" stroke-width="2" stroke-linecap="round" stroke-linejoin="round"/>
<path d="M59 40.5C59.5523 40.5 60.0026 40.9481 59.975 41.4997C59.7814 45.3701 58.4666 49.109 56.1803 52.2557C53.6978 55.6727 50.1972 58.216 46.1803 59.5211C42.1635 60.8263 37.8365 60.8263 33.8197 59.5211C29.8028 58.216 26.3022 55.6727 23.8197 52.2557C21.3371 48.8388 20 44.7236 20 40.5C20 36.2764 21.3371 32.1612 23.8197 28.7443C26.3022 25.3273 29.8028 22.784 33.8197 21.4789C37.5189 20.2769 41.4811 20.1819 45.2219 21.1937C45.755 21.3379 46.042 21.9047 45.8713 22.4299C45.7007 22.9552 45.137 23.2398 44.6031 23.0985C41.2648 22.2154 37.7352 22.3096 34.4377 23.381C30.8225 24.5556 27.672 26.8446 25.4377 29.9199C23.2034 32.9951 22 36.6988 22 40.5C22 44.3012 23.2034 48.0049 25.4377 51.0801C27.672 54.1554 30.8225 56.4444 34.4377 57.619C38.0529 58.7937 41.9471 58.7937 45.5623 57.619C49.1775 56.4444 52.328 54.1554 54.5623 51.0801C56.6003 48.2751 57.7805 44.9473 57.9722 41.4995C58.0029 40.9481 58.4477 40.5 59 40.5Z" fill="#0F5FC2"/>
</svg>
