<svg width="80" height="81" viewBox="0 0 80 81" fill="none" xmlns="http://www.w3.org/2000/svg">
<circle cx="40" cy="40.5" r="40" fill="#DBFFEC"/>
<path d="M40 30.5V50.5" stroke="#00AC4F" stroke-width="2" stroke-linecap="round" stroke-linejoin="round"/>
<path d="M45 33.5H37.5C36.5717 33.5 35.6815 33.8687 35.0251 34.5251C34.3687 35.1815 34 36.0717 34 37C34 37.9283 34.3687 38.8185 35.0251 39.4749C35.6815 40.1313 36.5717 40.5 37.5 40.5H42.5C43.4283 40.5 44.3185 40.8687 44.9749 41.5251C45.6313 42.1815 46 43.0717 46 44C46 44.9283 45.6313 45.8185 44.9749 46.4749C44.3185 47.1313 43.4283 47.5 42.5 47.5H34" stroke="#00AC4F" stroke-width="2" stroke-linecap="round" stroke-linejoin="round"/>
<path d="M62.6304 32.6498L52.7445 32.1317L53.2626 22.2458" stroke="#00AC4F" stroke-width="2" stroke-linecap="round" stroke-linejoin="round"/>
<path d="M63.1501 22.7611L52.7461 32.1289" stroke="#00AC4F" stroke-width="2" stroke-linecap="round" stroke-linejoin="round"/>
<path d="M59 40.5C59.5523 40.5 60.0026 40.9481 59.975 41.4997C59.7814 45.3701 58.4666 49.109 56.1803 52.2557C53.6978 55.6727 50.1972 58.216 46.1803 59.5211C42.1635 60.8263 37.8365 60.8263 33.8197 59.5211C29.8028 58.216 26.3022 55.6727 23.8197 52.2557C21.3371 48.8388 20 44.7236 20 40.5C20 36.2764 21.3371 32.1612 23.8197 28.7443C26.3022 25.3273 29.8028 22.784 33.8197 21.4789C37.5189 20.2769 41.4811 20.1819 45.2219 21.1937C45.755 21.3379 46.042 21.9047 45.8713 22.4299C45.7007 22.9552 45.137 23.2398 44.6031 23.0985C41.2648 22.2154 37.7352 22.3096 34.4377 23.381C30.8225 24.5556 27.672 26.8446 25.4377 29.9199C23.2034 32.9951 22 36.6988 22 40.5C22 44.3012 23.2034 48.0049 25.4377 51.0801C27.672 54.1554 30.8225 56.4444 34.4377 57.619C38.0529 58.7937 41.9471 58.7937 45.5623 57.619C49.1775 56.4444 52.328 54.1554 54.5623 51.0801C56.6003 48.2751 57.7805 44.9473 57.9722 41.4995C58.0029 40.9481 58.4477 40.5 59 40.5Z" fill="#00AC4F"/>
</svg>
