<svg width="134" height="24" viewBox="0 0 134 24" fill="none" xmlns="http://www.w3.org/2000/svg">
    <path d="M21 15.9999V7.9999C20.9996 7.64918 20.9071 7.30471 20.7315 7.00106C20.556 6.69742 20.3037 6.44526 20 6.2699L13 2.2699C12.696 2.09437 12.3511 2.00195 12 2.00195C11.6489 2.00195 11.304 2.09437 11 2.2699L4 6.2699C3.69626 6.44526 3.44398 6.69742 3.26846 7.00106C3.09294 7.30471 3.00036 7.64918 3 7.9999V15.9999C3.00036 16.3506 3.09294 16.6951 3.26846 16.9987C3.44398 17.3024 3.69626 17.5545 4 17.7299L11 21.7299C11.304 21.9054 11.6489 21.9979 12 21.9979C12.3511 21.9979 12.696 21.9054 13 21.7299L20 17.7299C20.3037 17.5545 20.556 17.3024 20.7315 16.9987C20.9071 16.6951 20.9996 16.3506 21 15.9999Z" stroke="black" stroke-width="2" stroke-linecap="round" stroke-linejoin="round"/>
    <path d="M12 16C14.2091 16 16 14.2091 16 12C16 9.79086 14.2091 8 12 8C9.79086 8 8 9.79086 8 12C8 14.2091 9.79086 16 12 16Z" stroke="black" stroke-width="2" stroke-linecap="round" stroke-linejoin="round"/>
    <path d="M33.88 21L41.44 4.2H44.512L52.096 21H48.832L42.328 5.856H43.576L37.096 21H33.88ZM37.36 17.112L38.2 14.664H47.272L48.112 17.112H37.36ZM61.7742 21.24C60.4942 21.24 59.3022 21.032 58.1982 20.616C57.1102 20.184 56.1582 19.584 55.3422 18.816C54.5422 18.032 53.9182 17.112 53.4702 16.056C53.0222 15 52.7982 13.848 52.7982 12.6C52.7982 11.352 53.0222 10.2 53.4702 9.144C53.9182 8.088 54.5502 7.176 55.3662 6.408C56.1822 5.624 57.1342 5.024 58.2222 4.608C59.3102 4.176 60.5022 3.96 61.7982 3.96C63.1742 3.96 64.4302 4.2 65.5662 4.68C66.7022 5.144 67.6622 5.84 68.4462 6.768L66.4302 8.664C65.8222 8.008 65.1422 7.52 64.3902 7.2C63.6382 6.864 62.8222 6.696 61.9422 6.696C61.0622 6.696 60.2542 6.84 59.5182 7.128C58.7982 7.416 58.1662 7.824 57.6222 8.352C57.0942 8.88 56.6782 9.504 56.3742 10.224C56.0862 10.944 55.9422 11.736 55.9422 12.6C55.9422 13.464 56.0862 14.256 56.3742 14.976C56.6782 15.696 57.0942 16.32 57.6222 16.848C58.1662 17.376 58.7982 17.784 59.5182 18.072C60.2542 18.36 61.0622 18.504 61.9422 18.504C62.8222 18.504 63.6382 18.344 64.3902 18.024C65.1422 17.688 65.8222 17.184 66.4302 16.512L68.4462 18.432C67.6622 19.344 66.7022 20.04 65.5662 20.52C64.4302 21 63.1662 21.24 61.7742 21.24ZM85.8445 21.24C84.5645 21.24 83.3725 21.032 82.2685 20.616C81.1805 20.184 80.2285 19.584 79.4125 18.816C78.6125 18.032 77.9885 17.112 77.5405 16.056C77.0925 15 76.8685 13.848 76.8685 12.6C76.8685 11.352 77.0925 10.2 77.5405 9.144C77.9885 8.088 78.6205 7.176 79.4365 6.408C80.2525 5.624 81.2045 5.024 82.2925 4.608C83.3805 4.176 84.5725 3.96 85.8685 3.96C87.2445 3.96 88.5005 4.2 89.6365 4.68C90.7725 5.144 91.7325 5.84 92.5165 6.768L90.5005 8.664C89.8925 8.008 89.2125 7.52 88.4605 7.2C87.7085 6.864 86.8925 6.696 86.0125 6.696C85.1325 6.696 84.3245 6.84 83.5885 7.128C82.8685 7.416 82.2365 7.824 81.6925 8.352C81.1645 8.88 80.7485 9.504 80.4445 10.224C80.1565 10.944 80.0125 11.736 80.0125 12.6C80.0125 13.464 80.1565 14.256 80.4445 14.976C80.7485 15.696 81.1645 16.32 81.6925 16.848C82.2365 17.376 82.8685 17.784 83.5885 18.072C84.3245 18.36 85.1325 18.504 86.0125 18.504C86.8925 18.504 87.7085 18.344 88.4605 18.024C89.2125 17.688 89.8925 17.184 90.5005 16.512L92.5165 18.432C91.7325 19.344 90.7725 20.04 89.6365 20.52C88.5005 21 87.2365 21.24 85.8445 21.24ZM95.506 21V4.2H102.418C103.906 4.2 105.178 4.44 106.234 4.92C107.306 5.4 108.13 6.088 108.706 6.984C109.282 7.88 109.57 8.944 109.57 10.176C109.57 11.408 109.282 12.472 108.706 13.368C108.13 14.248 107.306 14.928 106.234 15.408C105.178 15.872 103.906 16.104 102.418 16.104H97.234L98.626 14.688V21H95.506ZM106.498 21L102.25 14.904H105.586L109.858 21H106.498ZM98.626 15.024L97.234 13.536H102.274C103.65 13.536 104.682 13.24 105.37 12.648C106.074 12.056 106.426 11.232 106.426 10.176C106.426 9.104 106.074 8.28 105.37 7.704C104.682 7.128 103.65 6.84 102.274 6.84H97.234L98.626 5.304V15.024ZM113.061 21V4.2H115.629L122.973 16.464H121.629L128.853 4.2H131.421L131.445 21H128.493L128.469 8.832H129.093L122.949 19.08H121.557L115.317 8.832H116.037V21H113.061Z" fill="#1B1725"/>
</svg>
