<svg width="24" height="24" viewBox="0 0 30 30" fill="none" xmlns="http://www.w3.org/2000/svg">
<circle cx="15" cy="15" r="14.5" stroke="#25D366"/>
<path d="M21 13.5C21 18 15 22.5 15 22.5C15 22.5 9 18 9 13.5C9 11.9087 9.63214 10.3826 10.7574 9.25736C11.8826 8.13214 13.4087 7.5 15 7.5C16.5913 7.5 18.1174 8.13214 19.2426 9.25736C20.3679 10.3826 21 11.9087 21 13.5Z" stroke="#25D366" stroke-width="2" stroke-linecap="round" stroke-linejoin="round"/>
<path d="M15 15.75C16.2426 15.75 17.25 14.7426 17.25 13.5C17.25 12.2574 16.2426 11.25 15 11.25C13.7574 11.25 12.75 12.2574 12.75 13.5C12.75 14.7426 13.7574 15.75 15 15.75Z" stroke="#25D366" stroke-width="2" stroke-linecap="round" stroke-linejoin="round"/>
</svg>
