<svg width="50" height="50" viewBox="0 0 50 50" fill="none" xmlns="http://www.w3.org/2000/svg">
<g clip-path="url(#clip0_471_26923)">
<path d="M38.4793 0.833984H6.08449C4.70432 0.833984 3.58456 1.95374 3.58456 3.33391V39.5828L13.1676 49.1658H38.4793C39.8595 49.1658 40.9792 48.0461 40.9792 46.6659V3.33391C40.9792 1.95374 39.8595 0.833984 38.4793 0.833984Z" fill="#FFE8E8"/>
<path d="M40.9792 16.0959V46.6656C40.9792 48.0462 39.86 49.1655 38.4793 49.1655H13.1676L3.58456 39.5824V29.4049C3.58456 28.8748 4.07236 28.4795 4.59089 28.5901C18.7542 31.6127 31.6693 26.1705 39.474 15.6033C39.9525 14.9553 40.9792 15.2904 40.9792 16.0959Z" fill="#FFD1D2"/>
<path d="M13.1676 41.5997V49.1651L3.58456 39.582H11.15C12.2645 39.582 13.1676 40.4851 13.1676 41.5997Z" fill="#FFB9BA"/>
<path d="M33.4795 7.5006V11.6671C33.4795 12.5879 32.7337 13.3337 31.8129 13.3337H12.4385C11.5177 13.3337 10.7719 12.5879 10.7719 11.6671V7.5006C10.7719 6.57979 11.5177 5.83398 12.4385 5.83398H31.8129C32.7337 5.83398 33.4795 6.57979 33.4795 7.5006Z" fill="#FFD1D2"/>
<path d="M46.4176 38.1474C46.4176 42.767 43.6607 46.9145 39.473 48.5929C38.6879 48.9075 38.7761 48.8762 38.7418 48.8762C37.7784 49.2626 36.7031 49.2626 35.7398 48.8762L35.0325 48.5929C30.8452 46.9138 28.089 42.767 28.089 38.1474V31.6924C28.089 30.8591 28.7723 30.2007 29.5827 30.2487C31.8694 30.3827 34.1977 29.9575 36.3658 28.9445C36.6397 28.8164 36.9384 28.75 37.2408 28.75C37.5432 28.75 37.8419 28.8164 38.1158 28.9445C40.2641 29.9471 42.5871 30.3842 44.8989 30.2487C45.7093 30.2007 46.3926 30.8591 46.3926 31.6924C46.3926 38.6351 46.3788 38.1474 46.4176 38.1474Z" fill="#FFB9BA"/>
<path d="M44.9975 32.1797C44.351 32.0769 43.7124 31.929 43.0864 31.7372C41.287 31.1853 39.3648 31.2209 37.5625 31.7633C35.9904 32.2373 34.3467 32.4295 32.7076 32.3309C31.8972 32.283 31.2139 32.9413 31.2139 33.7746C31.2139 33.7746 31.214 40.2933 31.2143 40.3251C31.2285 42.051 28.7465 42.3539 28.3683 40.6698C28.1824 39.8415 28.0888 38.9952 28.089 38.1464V31.6914C28.089 30.8581 28.7723 30.2001 29.5827 30.2477C31.8767 30.3824 34.2124 29.954 36.3874 28.9334C36.9352 28.6765 37.5674 28.6877 38.1159 28.9435C40.2637 29.9456 42.5877 30.3843 44.899 30.2477C46.7152 30.1403 46.3354 32.393 44.9975 32.1797Z" fill="#FFD1D2"/>
<path d="M47.2263 37.9455V31.692C47.2263 30.4008 46.1597 29.339 44.85 29.416C44.6294 29.4289 44.423 29.5289 44.2761 29.694C44.1292 29.8591 44.0539 30.0758 44.0667 30.2964C44.0937 30.7558 44.489 31.107 44.9472 31.0798C45.276 31.0609 45.5596 31.3334 45.5596 31.692C45.5596 38.6809 45.5493 38.2021 45.5824 38.3413C45.5078 42.5715 43.0053 46.2787 39.1636 47.8187C38.3251 48.1549 38.5476 48.0558 38.4319 48.102C37.6677 48.4097 36.8141 48.4097 36.0499 48.102L35.343 47.8189C31.4424 46.2543 28.922 42.4577 28.922 38.1469V31.692C28.922 31.3479 29.1928 31.0602 29.5343 31.0798C31.9645 31.2228 34.433 30.7671 36.7187 29.6985C36.8822 29.622 37.0604 29.5823 37.2409 29.5823C37.4214 29.5823 37.5997 29.622 37.7631 29.6987C38.9535 30.2548 40.3069 30.6563 40.8404 30.746C41.228 30.8126 41.5939 30.5983 41.7417 30.2608C41.848 30.02 41.8126 31.8057 41.8126 3.33323C41.8126 1.49527 40.3174 0 38.4794 0H6.08459C4.24663 0 2.75136 1.49527 2.75136 3.33323C2.75136 41.1977 2.73626 39.6554 2.78719 39.8238C2.81883 39.9281 2.8706 40.0252 2.93958 40.1096C2.97406 40.1518 12.5783 49.7645 12.6732 49.8346C12.8128 49.9378 12.9812 49.9949 13.1548 49.9977C13.1981 49.9987 12.2425 49.9983 29.5449 49.9983C29.7659 49.9983 29.9779 49.9105 30.1341 49.7543C30.2904 49.598 30.3782 49.386 30.3782 49.165C30.3782 48.944 30.2904 48.7321 30.1341 48.5758C29.9779 48.4195 29.7659 48.3317 29.5449 48.3317H14.0009V41.5994C14.0009 40.0275 12.7221 38.7487 11.1502 38.7487H8.94721C8.7262 38.7487 8.51425 38.8365 8.35797 38.9928C8.2017 39.149 8.1139 39.361 8.1139 39.582C8.1139 39.803 8.2017 40.015 8.35797 40.1712C8.51425 40.3275 8.7262 40.4153 8.94721 40.4153H11.1501C11.8031 40.4153 12.3342 40.9465 12.3342 41.5994V47.1532L4.41777 39.2367V3.33323C4.41777 2.4143 5.16545 1.66661 6.08438 1.66661H38.4792C39.3981 1.66661 40.1458 2.4143 40.1458 3.33323V28.8388C39.5728 28.66 39.0124 28.4428 38.4686 28.1888C38.0843 28.0086 37.6651 27.9152 37.2407 27.9152C36.8163 27.9152 36.3971 28.0086 36.0128 28.1888C34.0564 29.103 31.8746 29.5475 29.6315 29.416C28.319 29.3392 27.2552 30.4028 27.2552 31.692V38.1469C27.2552 43.0038 30.1255 47.5232 34.7227 49.366C35.564 49.7031 36.1882 50 37.2406 50C38.2589 49.9998 38.9196 49.7121 39.7834 49.3657C44.3725 47.5262 47.2506 43.0133 47.2506 38.1469C47.2508 38.079 47.2426 38.0114 47.2263 37.9455Z" fill="#FF2E31"/>
<path d="M39.9733 36.4931L36.7692 39.6974L35.1675 38.3246C34.9995 38.1828 34.7822 38.1133 34.5631 38.131C34.3439 38.1488 34.1407 38.2524 33.9976 38.4193C33.8545 38.5862 33.7832 38.8029 33.7992 39.0222C33.8152 39.2415 33.9172 39.4456 34.083 39.59L36.2704 41.4649C36.4298 41.6015 36.6349 41.673 36.8447 41.6649C37.0545 41.6568 37.2535 41.5699 37.4019 41.4215L41.1518 37.6716C41.3081 37.5153 41.3959 37.3033 41.3959 37.0823C41.3959 36.8613 41.3081 36.6494 41.1518 36.4931C40.9955 36.3368 40.7836 36.249 40.5626 36.249C40.3416 36.249 40.1296 36.3368 39.9733 36.4931ZM37.021 18.3329C37.021 18.1119 36.9332 17.9 36.7769 17.7437C36.6207 17.5874 36.4087 17.4996 36.1877 17.4996H8.06359C7.84259 17.4996 7.63063 17.5874 7.47436 17.7437C7.31808 17.9 7.23029 18.1119 7.23029 18.3329C7.23029 18.5539 7.31808 18.7659 7.47436 18.9222C7.63063 19.0784 7.84259 19.1662 8.06359 19.1662H36.1877C36.4087 19.1662 36.6207 19.0784 36.7769 18.9222C36.9332 18.7659 37.021 18.5539 37.021 18.3329ZM33.4795 10.4165C33.7005 10.4165 33.9124 10.3287 34.0687 10.1724C34.225 10.0162 34.3128 9.8042 34.3128 9.58319V7.49992C34.3128 6.12153 33.1912 5 31.8128 5H12.4385C11.0601 5 9.93853 6.12153 9.93853 7.49992V11.6665C9.93853 13.0449 11.0601 14.1664 12.4385 14.1664H31.0434C31.2644 14.1664 31.4764 14.0786 31.6326 13.9223C31.7889 13.766 31.8767 13.5541 31.8767 13.3331C31.8767 13.1121 31.7889 12.9001 31.6326 12.7438C31.4764 12.5876 31.2644 12.4998 31.0434 12.4998H12.4385C11.979 12.4998 11.6051 12.1259 11.6051 11.6665V7.49992C11.6051 7.04046 11.979 6.66661 12.4385 6.66661H31.8128C32.2723 6.66661 32.6462 7.04046 32.6462 7.49992V9.58319C32.6462 9.8042 32.7339 10.0162 32.8902 10.1724C33.0465 10.3287 33.2585 10.4165 33.4795 10.4165ZM13.6884 23.7494H11.1885C10.9675 23.7494 10.7555 23.8372 10.5993 23.9935C10.443 24.1498 10.3552 24.3617 10.3552 24.5827C10.3552 24.8037 10.443 25.0157 10.5993 25.172C10.7555 25.3282 10.9675 25.416 11.1885 25.416H13.6884C13.9094 25.416 14.1214 25.3282 14.2777 25.172C14.4339 25.0157 14.5217 24.8037 14.5217 24.5827C14.5217 24.3617 14.4339 24.1498 14.2777 23.9935C14.1214 23.8372 13.9094 23.7494 13.6884 23.7494ZM13.6884 31.6658H11.1885C10.9675 31.6658 10.7555 31.7536 10.5993 31.9099C10.443 32.0662 10.3552 32.2781 10.3552 32.4991C10.3552 32.7201 10.443 32.9321 10.5993 33.0884C10.7555 33.2447 10.9675 33.3324 11.1885 33.3324H13.6884C13.9094 33.3324 14.1214 33.2447 14.2777 33.0884C14.4339 32.9321 14.5217 32.7201 14.5217 32.4991C14.5217 32.2781 14.4339 32.0662 14.2777 31.9099C14.1214 31.7536 13.9094 31.6658 13.6884 31.6658ZM34.3128 24.5827C34.3128 24.3617 34.225 24.1498 34.0687 23.9935C33.9124 23.8372 33.7005 23.7494 33.4795 23.7494H18.4799C18.2589 23.7494 18.047 23.8372 17.8907 23.9935C17.7344 24.1498 17.6466 24.3617 17.6466 24.5827C17.6466 24.8037 17.7344 25.0157 17.8907 25.172C18.047 25.3282 18.2589 25.416 18.4799 25.416H33.4795C33.7005 25.416 33.9124 25.3282 34.0687 25.172C34.225 25.0157 34.3128 24.8037 34.3128 24.5827ZM25.1464 31.6658H18.4799C18.2589 31.6658 18.047 31.7536 17.8907 31.9099C17.7344 32.0662 17.6466 32.2781 17.6466 32.4991C17.6466 32.7201 17.7344 32.9321 17.8907 33.0884C18.047 33.2447 18.2589 33.3324 18.4799 33.3324H25.1464C25.3674 33.3324 25.5794 33.2447 25.7356 33.0884C25.8919 32.9321 25.9797 32.7201 25.9797 32.4991C25.9797 32.2781 25.8919 32.0662 25.7356 31.9099C25.5794 31.7536 25.3674 31.6658 25.1464 31.6658ZM25.1464 39.5823H18.4799C18.2589 39.5823 18.047 39.67 17.8907 39.8263C17.7344 39.9826 17.6466 40.1946 17.6466 40.4156C17.6466 40.6366 17.7344 40.8485 17.8907 41.0048C18.047 41.1611 18.2589 41.2489 18.4799 41.2489H25.1464C25.3674 41.2489 25.5794 41.1611 25.7356 41.0048C25.8919 40.8485 25.9797 40.6366 25.9797 40.4156C25.9797 40.1946 25.8919 39.9826 25.7356 39.8263C25.5794 39.67 25.3674 39.5823 25.1464 39.5823Z" fill="#FF2E31"/>
</g>
<defs>
<clipPath id="clip0_471_26923">
<rect width="50" height="50" fill="white"/>
</clipPath>
</defs>
</svg>
